<?xml version="1.0" standalone="no"?>
<!DOCTYPE svg PUBLIC "-//W3C//DTD SVG 20010904//EN"
 "http://www.w3.org/TR/2001/REC-SVG-20010904/DTD/svg10.dtd">
<svg version="1.0" xmlns="http://www.w3.org/2000/svg"
 width="500.000000pt" height="500.000000pt" viewBox="0 0 500.000000 500.000000"
 preserveAspectRatio="xMidYMid meet">
<metadata>
Created by potrace 1.11, written by Peter Selinger 2001-2013
</metadata>
<g transform="translate(0.000000,500.000000) scale(0.100000,-0.100000)"
fill="#000000" stroke="none">
<path d="M1317 4951 c-15 -8 -27 -19 -27 -24 0 -12 -747 -1066 -785 -1107 -53
-57 -55 -67 -55 -239 0 -169 6 -200 47 -243 31 -33 75 -41 206 -41 85 0 97 -2
93 -16 -2 -9 -7 -34 -11 -56 -4 -22 -9 -49 -11 -60 -5 -33 -45 -268 -50 -300
-2 -16 -11 -66 -19 -110 -7 -44 -16 -96 -19 -115 -3 -19 -8 -48 -11 -65 -3
-16 -12 -66 -20 -110 -15 -84 -18 -99 -35 -205 -5 -36 -12 -76 -14 -90 -8 -42
-76 -436 -102 -590 -13 -80 -41 -239 -61 -355 -19 -115 -37 -219 -38 -230 -5
-30 -15 -86 -21 -117 -3 -15 -7 -39 -9 -55 -2 -15 -13 -80 -24 -143 -11 -63
-23 -132 -27 -154 -3 -21 -8 -48 -10 -60 -8 -38 -27 -161 -27 -173 0 -8 -16
-13 -41 -14 -23 0 -79 -2 -126 -2 l-85 -2 0 -138 0 -137 1317 0 1318 0 0 138
0 138 -116 1 c-64 1 -120 5 -125 10 -4 4 -11 26 -13 48 -5 37 -8 52 -22 125
-2 14 -7 41 -10 60 -3 19 -17 100 -31 180 -14 80 -27 158 -29 173 -2 16 -12
79 -23 140 -11 62 -23 132 -26 157 -4 24 -8 47 -10 50 -1 3 -6 25 -9 50 -3 25
-8 56 -11 70 -3 14 -8 41 -11 60 -8 52 -74 436 -85 500 -5 30 -12 71 -14 90
-3 19 -9 55 -15 80 -7 36 -86 498 -106 625 -2 17 -9 53 -14 80 -5 28 -12 66
-15 85 -4 19 -18 100 -31 180 -14 80 -27 159 -29 175 -3 17 -7 42 -10 56 l-6
26 938 0 938 0 0 -420 0 -420 -37 -23 c-20 -13 -48 -38 -61 -56 -84 -112 -30
-271 109 -322 21 -8 31 -15 21 -15 -32 -1 -74 -39 -90 -80 -17 -42 -15 -77 9
-122 8 -16 11 -29 7 -30 -5 0 -203 0 -440 0 l-433 1 0 -70 c0 -66 1 -70 23
-71 12 0 38 -1 57 -2 l35 -2 1 -155 c1 -85 0 -162 -2 -171 -4 -13 -15 -16 -47
-14 -65 3 -67 0 -67 -74 l0 -68 985 0 986 0 -3 71 -3 70 -45 2 c-25 1 -50 2
-56 3 -12 1 -19 286 -8 324 4 13 17 17 60 17 l55 0 -3 68 -3 67 -438 1 c-240
0 -440 4 -444 7 -3 4 -2 7 4 7 16 0 33 47 33 91 0 53 -25 95 -72 118 l-37 18
39 12 c47 14 106 69 126 117 41 97 2 205 -96 266 l-25 15 0 420 -1 420 346 0
c190 0 362 3 382 7 35 6 96 61 100 89 6 49 3 338 -3 361 -10 35 -45 74 -79 89
-15 6 -146 11 -330 12 l-305 2 -425 177 c-234 98 -479 200 -545 228 -66 27
-140 58 -165 68 -67 26 -1420 589 -1455 604 -64 30 -100 35 -128 17z m970
-517 c472 -195 899 -373 948 -393 50 -21 164 -69 255 -106 91 -37 168 -71 172
-74 4 -3 -403 -6 -905 -6 l-912 0 -5 95 c-4 83 -8 100 -30 127 -37 45 -70 53
-236 54 l-150 0 0 330 c0 181 1 329 3 329 1 0 388 -160 860 -356z m-1002 -36
l0 -263 -163 -2 c-148 -2 -165 -4 -192 -23 -45 -32 -55 -57 -60 -160 l-5 -95
-77 0 c-43 -1 -78 2 -78 5 0 3 24 38 53 77 28 40 156 219 282 398 127 178 232
325 235 325 3 0 5 -118 5 -262z m826 -687 c4 0 7 -62 7 -136 l1 -135 -42 -1
c-81 -2 -96 -2 -109 3 -10 4 -13 34 -11 129 0 68 2 129 2 134 1 8 119 13 152
6z m414 -3 c6 -4 10 -57 10 -134 0 -126 -1 -128 -24 -134 -38 -9 -243 -2 -250
8 -8 13 -6 246 2 258 6 11 246 12 262 2z m418 3 c4 0 7 -62 7 -136 0 -101 -3
-135 -12 -136 -20 -1 -220 -1 -244 0 -20 1 -21 6 -21 134 0 72 4 134 8 137 6
4 237 5 262 1z m424 -134 c2 -135 2 -137 -20 -138 -23 -1 -180 -1 -229 0 l-28
1 0 133 c0 74 2 136 4 138 3 2 64 4 138 4 l133 0 2 -138z m414 128 c0 -5 1
-67 2 -138 2 -107 0 -127 -13 -128 -60 -3 -252 -1 -256 4 -4 4 -7 142 -5 242
l1 30 135 0 c83 0 135 -4 136 -10z m419 -130 l0 -140 -131 2 c-72 1 -134 4
-137 8 -3 3 -6 63 -7 133 0 95 3 128 13 132 7 3 69 5 137 5 l125 0 0 -140z
m387 125 c28 -18 33 -44 31 -139 -1 -59 -6 -79 -22 -98 -20 -23 -28 -25 -126
-25 -58 0 -111 1 -117 1 -10 1 -13 36 -13 139 l0 138 113 -1 c78 -1 119 -6
134 -15z m-3009 -415 c-32 -30 -217 -175 -223 -175 -7 0 -120 88 -209 162
l-29 25 237 0 c188 0 235 -2 224 -12z m-430 -250 c28 -22 51 -43 52 -46 0 -7
-186 -159 -195 -159 -3 0 -3 12 0 28 8 46 24 135 30 177 4 22 8 47 10 55 2 8
4 17 4 18 1 4 18 -8 99 -73z m538 -72 c13 -76 24 -139 24 -140 0 -2 -45 34
-100 79 -55 45 -99 85 -98 89 4 11 142 119 146 114 2 -2 15 -66 28 -142z
m-136 -259 c104 -86 190 -159 190 -162 -1 -11 -379 -257 -390 -254 -6 1 -95
59 -200 128 l-189 126 57 46 c31 25 73 60 93 76 19 17 55 47 80 67 24 20 69
57 99 83 30 25 58 46 62 46 4 0 93 -70 198 -156z m-482 -474 c56 -36 101 -67
102 -70 0 -5 -295 -202 -312 -209 -6 -2 -8 5 -4 15 3 11 8 39 11 64 3 25 7 52
8 60 2 8 12 65 22 127 l19 112 26 -17 c15 -9 72 -46 128 -82z m746 -12 c10
-57 19 -116 22 -133 2 -16 8 -52 13 -80 5 -27 8 -51 6 -53 -4 -4 -314 201
-315 208 0 7 233 159 246 159 6 1 18 -43 28 -101z m-204 -344 c139 -91 250
-167 249 -168 -2 -2 -60 -34 -129 -71 -69 -38 -138 -76 -155 -85 -16 -9 -73
-40 -125 -68 l-95 -51 -70 38 c-39 21 -104 56 -145 78 -156 83 -236 127 -264
144 l-29 18 224 146 c123 81 235 155 249 165 14 11 28 19 32 19 4 1 120 -74
258 -165z m-695 -420 c77 -43 153 -84 202 -109 18 -10 31 -21 28 -25 -4 -7
-58 -37 -230 -130 -16 -9 -70 -38 -118 -64 -49 -27 -90 -46 -92 -45 -2 2 5 51
16 109 10 58 21 123 24 145 3 22 8 47 10 55 2 8 7 35 10 60 11 83 12 84 48 62
18 -11 64 -36 102 -58z m1021 53 c7 -46 47 -285 58 -347 7 -41 12 -77 10 -78
-5 -7 -431 225 -440 239 -3 5 3 13 13 17 10 4 83 43 163 87 80 44 154 85 165
91 22 12 28 10 31 -9z m-232 -483 c188 -103 342 -187 343 -188 3 -3 82 -454
89 -514 5 -36 4 -42 -12 -43 -111 -4 -1546 0 -1551 4 -3 4 9 93 27 199 18 106
34 202 36 213 5 33 12 68 19 107 7 36 9 37 348 222 188 102 346 186 351 186 5
0 162 -84 350 -186z"/>
</g>
</svg>
